<svg width="38" height="38" fill="none" xmlns="http://www.w3.org/2000/svg"><g clip-path="url(#a)" fill="#014DF5"><path d="M34.2 3.8h-1.9V1.9c0-1.14-.76-1.9-1.9-1.9s-1.9.76-1.9 1.9v1.9h-19V1.9C9.5.76 8.74 0 7.6 0S5.7.76 5.7 1.9v1.9H1.9C.95 3.8 0 4.56 0 5.7v26.6c0 1.14.95 1.9 1.9 1.9h11.59c-1.33-2.28-2.09-4.94-2.09-7.6 0-8.36 6.84-15.2 15.2-15.2 3.61 0 6.84 1.33 9.5 3.42V5.7c0-.95-.95-1.9-1.9-1.9Z"/><path d="M26.6 15.2c-6.27 0-11.4 5.13-11.4 11.4 0 6.27 5.13 11.4 11.4 11.4C32.87 38 38 32.87 38 26.6c0-6.27-5.13-11.4-11.4-11.4Zm3.8 13.3h-3.8c-1.14 0-1.9-.76-1.9-1.9v-5.7c0-1.14.76-1.9 1.9-1.9s1.9.76 1.9 1.9v3.8h1.9c1.14 0 1.9.76 1.9 1.9s-.76 1.9-1.9 1.9Z"/></g><defs><clipPath id="a"><path fill="#fff" d="M0 0h38v38H0z"/></clipPath></defs></svg>