<svg width="45" height="45" fill="none" xmlns="http://www.w3.org/2000/svg"><path d="M19.688 14.062v-2.813H2.813A2.817 2.817 0 0 0 0 14.062v5.625h20.28c-.39-1.719-.593-3.57-.593-5.625Zm25.197 11.25c-1.918 2.956-4.843 5.47-9.034 7.878a4.235 4.235 0 0 1-4.194.005c-4.19-2.413-7.115-4.93-9.036-7.883H0v14.062a2.815 2.815 0 0 0 2.813 2.813h39.374A2.814 2.814 0 0 0 45 39.374V25.312h-.115Zm-32.229 8.437H7.031a1.407 1.407 0 0 1 0-2.812h5.625a1.407 1.407 0 0 1 0 2.812Z" fill="#014DF5"/><path d="m44.148 7.146-9.844-4.219a1.411 1.411 0 0 0-1.11 0l-9.845 4.219c-.514.22-.849.728-.849 1.29v5.626c0 7.737 2.86 12.26 10.55 16.69a1.41 1.41 0 0 0 1.4 0C42.14 26.331 45 21.81 45 14.061V8.437a1.4 1.4 0 0 0-.852-1.291Zm-5.08 6.39-5.625 7.031c-.27.332-.675.526-1.1.526h-.058c-.447-.02-.86-.25-1.111-.624L28.36 16.25a1.405 1.405 0 1 1 2.34-1.558l1.747 2.618 4.421-5.53a1.406 1.406 0 0 1 2.2 1.755Z" fill="#014DF5"/></svg>