<svg width="32" height="32" fill="none" xmlns="http://www.w3.org/2000/svg"><path d="M10.334 5.333a1 1 0 0 0-2 0v2.422a4.5 4.5 0 0 0-3.83 3.865l-.116.87c-.02.148-.038.296-.056.443a.657.657 0 0 0 .657.734h22.023a.657.657 0 0 0 .656-.734 41.239 41.239 0 0 0-.056-.443l-.115-.87a4.5 4.5 0 0 0-3.83-3.865V5.333a1 1 0 1 0-2 0v2.224a63.882 63.882 0 0 0-11.333 0V5.333ZM27.926 16.3a.658.658 0 0 0-.66-.633H4.735a.658.658 0 0 0-.66.634c-.08 2.41.066 4.825.438 7.213a4.013 4.013 0 0 0 3.571 3.377l1.59.157c4.208.415 8.445.415 12.652 0l1.59-.157a4.013 4.013 0 0 0 3.572-3.377c.371-2.388.518-4.803.438-7.213Z" fill="#B1BEDA"/></svg>