<svg width="39" height="39" fill="none" xmlns="http://www.w3.org/2000/svg"><path fill-rule="evenodd" clip-rule="evenodd" d="M11.934 6.528a68.658 68.658 0 0 1 15.13 0c2.784.311 5.03 2.504 5.356 5.298a66.064 66.064 0 0 1 0 15.348c-.327 2.794-2.572 4.987-5.355 5.298a68.66 68.66 0 0 1-15.13 0c-2.784-.311-5.03-2.504-5.356-5.298a66.06 66.06 0 0 1 0-15.348c.327-2.794 2.572-4.987 5.355-5.298Zm1.829 7.235a1.219 1.219 0 0 1 1.723 0l4.014 4.013 4.013-4.013a1.219 1.219 0 1 1 1.723 1.724L21.223 19.5l4.013 4.013a1.219 1.219 0 0 1-1.723 1.724L19.5 21.224l-4.014 4.013a1.219 1.219 0 1 1-1.723-1.724l4.013-4.013-4.013-4.013a1.219 1.219 0 0 1 0-1.724Z" fill="#DEDEDE"/></svg>