<svg width="23" height="17" fill="none" xmlns="http://www.w3.org/2000/svg"><path d="M22.868 8.114c-1.923-4.049-6.297-7.7-11.413-7.7-5.757 0-9.894 4.503-11.413 7.7a.899.899 0 0 0 0 .772c1.923 4.049 6.297 7.7 11.413 7.7 5.757 0 9.895-4.503 11.413-7.7a.898.898 0 0 0 0-.772ZM11.455 14.79c-4.139 0-7.57-2.728-9.584-6.289 2.005-3.547 5.434-6.29 9.584-6.29 4.139 0 7.571 2.728 9.584 6.29-2.005 3.547-5.434 6.29-9.584 6.29Zm0-10.781A4.497 4.497 0 0 0 6.963 8.5a4.497 4.497 0 0 0 4.492 4.492A4.497 4.497 0 0 0 15.947 8.5a4.497 4.497 0 0 0-4.492-4.492Zm0 7.187A2.698 2.698 0 0 1 8.76 8.5a2.698 2.698 0 0 1 2.695-2.695A2.698 2.698 0 0 1 14.15 8.5a2.698 2.698 0 0 1-2.695 2.695Z" fill="#BDBDBD"/></svg>