<svg width="38" height="28" fill="none" xmlns="http://www.w3.org/2000/svg"><path d="M5.32 20.796c.283 0 .513-.23.513-.512v-4.106c0-.282.23-.513.512-.513h4.712c.282 0 .513-.23.513-.512v-4.106c0-.282.23-.512.512-.512h4.712c.282 0 .512-.23.512-.512V5.917c0-.282.23-.512.512-.512h4.712c.282 0 .513-.23.513-.513V.786c0-.281.23-.512.512-.512h13.933c.282 0 .512.23.512.512v5.54c0 .282-.23.513-.512.513h-4.712a.514.514 0 0 0-.513.512v4.106c0 .282-.23.512-.512.512H27.04a.514.514 0 0 0-.512.512v4.106c0 .282-.23.512-.512.512h-4.713a.514.514 0 0 0-.512.513v4.106c0 .281-.23.512-.512.512h-4.712a.514.514 0 0 0-.512.512v4.106c0 .282-.23.512-.512.512H.609a.514.514 0 0 1-.512-.512v-5.54c0-.282.23-.512.512-.512H5.32Z" fill="#B1BEDA"/></svg>