<svg width="24" height="32" fill="none" xmlns="http://www.w3.org/2000/svg"><path d="M19.428 6.857c.113 0 .223.034.317.096l.826.55v-2.93h-2.286v2.932l.826-.55a.571.571 0 0 1 .317-.097ZM8 6.857A3.429 3.429 0 1 0 8 0a3.429 3.429 0 0 0 0 6.857Z" fill="#B1BEDA"/><path d="M24 13.714V4.572h-2.286v4a.571.571 0 0 1-.888.475l-1.398-.933-1.397.932a.571.571 0 0 1-.888-.474v-4h-2.286v9.142H24ZM.442 31.76a1.18 1.18 0 0 0 1.603-.202l4-5.143c.096-.125.166-.269.205-.422l.857-3.436-1.843-2.049-1.144 4.577a.56.56 0 0 1-.104.212L.24 30.155a1.143 1.143 0 0 0 .203 1.604v.001Z" fill="#B1BEDA"/><path d="M9.02 10.723a.928.928 0 0 0-.145-.213.583.583 0 0 1-.057-.098.497.497 0 0 1-.044-.073.553.553 0 0 1-.034-.178c0-.01-.007-.02-.007-.03v-.006l.184-2.218A4.571 4.571 0 0 1 6.63 7.79l-.286 3.451-.617 7.38-.011.138c-.026.316.08.628.292.863l4.7 5.22a.572.572 0 0 1 .147.383v5.632a1.143 1.143 0 0 0 2.286 0v-6.286a1.13 1.13 0 0 0-.292-.764l-4.612-5.121-.041-.048a.571.571 0 0 1-.137-.422l.261-3.135-.778-1.021a.572.572 0 1 1 .914-.689l.901 1.185 1.548 1.844a.53.53 0 0 1 .074.114c.193.387.588.63 1.02.629h8a1.143 1.143 0 0 0 0-2.286h-6.943a.571.571 0 0 1-.42-.183l-3.525-3.817a.606.606 0 0 1-.092-.134Z" fill="#B1BEDA"/></svg>