<svg width="165" height="30" fill="none" xmlns="http://www.w3.org/2000/svg"><path fill-rule="evenodd" clip-rule="evenodd" d="M69.172 11.884a7.984 7.984 0 0 0-3.036-3.073c-1.283-.736-2.714-1.103-4.293-1.102-1.579.002-3.01.369-4.293 1.102a7.987 7.987 0 0 0-3.038 3.075c-.741 1.315-1.112 2.802-1.112 4.46 0 1.657.37 3.148 1.112 4.471.741 1.325 1.754 2.353 3.038 3.086 1.283.734 2.714 1.101 4.293 1.101 1.578 0 3.01-.367 4.293-1.101 1.283-.734 2.295-1.762 3.036-3.085.742-1.324 1.113-2.815 1.113-4.473-.001-1.659-.372-3.146-1.113-4.46Zm-11.694 1.53c.422-.836 1.008-1.478 1.758-1.924.75-.447 1.619-.67 2.607-.67.988 0 1.857.223 2.607.67.75.446 1.336 1.088 1.758 1.925.422.837.634 1.814.634 2.93s-.211 2.092-.634 2.93c-.423.837-1.009 1.48-1.758 1.925-.75.447-1.618.67-2.607.67-.989 0-1.858-.223-2.607-.67-.75-.446-1.336-1.088-1.758-1.925-.423-.837-.634-1.814-.634-2.93s.211-2.093.634-2.93ZM47.05 23.773c1.331-.709 2.348-1.701 3.05-2.977.702-1.276 1.053-2.75 1.053-4.424 0-1.69-.351-3.17-1.053-4.436-.7-1.267-1.717-2.247-3.049-2.942-1.332-.694-2.914-1.042-4.748-1.042H36.3v16.885h6.002c1.834-.001 3.417-.356 4.748-1.064Zm.682-7.4c0 1.722-.499 3.061-1.495 4.018-.997.956-2.404 1.434-4.222 1.435H39.67v-10.93h2.344c1.818-.001 3.225.477 4.222 1.434.996.957 1.495 2.305 1.495 4.042Zm43.53-8.23v16.695h-3.35V13.19l-4.28 11.648h-2.917l-4.282-11.6v11.6H73.06V8.142h4.09L82.22 20.7l4.976-12.557h4.066Zm6.673 16.695V7.951h-3.373v16.886h3.373Zm17.603 0h-3.373l-7.558-11.48v11.48h-3.372V7.951h3.372l7.558 11.575V7.951h3.373v16.886Zm6.816-3.396h6.769l1.172 3.396h3.564l-6.195-16.695h-3.851l-6.218 16.695h3.563l1.196-3.396Zm3.373-9.687 2.487 7.127h-4.975l2.488-7.127Zm24.492 13.083h-3.373l-7.558-11.48v11.48h-3.372V7.951h3.372l7.558 11.575V7.951h3.373v16.886ZM165 10.63V7.951h-12.677v2.679h4.64v14.207h3.373V10.63H165Z" fill="url(#a)"/><path fill-rule="evenodd" clip-rule="evenodd" d="M29.442 7.277H7.29L0 0h22.164a7.277 7.277 0 0 1 7.277 7.277Zm0 3.779v7.277H18.366l-7.29-7.277H29.44Zm0 18.333v-7.277h-7.29l7.29 7.277Z" fill="url(#b)"/><path fill-rule="evenodd" clip-rule="evenodd" d="M29.442 7.277H7.29L0 0h22.164a7.277 7.277 0 0 1 7.277 7.277Zm0 3.779v7.277H18.366l-7.29-7.277H29.44Zm0 18.333v-7.277h-7.29l7.29 7.277Z" fill="url(#c)"/><defs><linearGradient id="a" x1="100.65" y1="7.709" x2="100.65" y2="25.004" gradientUnits="userSpaceOnUse"><stop stop-color="#2644D0"/><stop offset="1" stop-color="#2E3AB0"/></linearGradient><linearGradient id="b" x1="14.721" y1="0" x2="14.721" y2="29.389" gradientUnits="userSpaceOnUse"><stop stop-color="#2249DE"/><stop offset=".461" stop-color="#3037A5"/><stop offset="1" stop-color="#3037A5"/></linearGradient><linearGradient id="c" x1="14.721" y1="0" x2="14.721" y2="29.389" gradientUnits="userSpaceOnUse"><stop stop-color="#2249DE"/><stop offset="1" stop-color="#3037A5"/></linearGradient></defs></svg>