<svg width="33" height="28" fill="none" xmlns="http://www.w3.org/2000/svg"><g clip-path="url(#a)"><path fill-rule="evenodd" clip-rule="evenodd" d="M31.567 26.91s2.12 0 2.12-2.124c0-2.125-2.12-8.5-10.599-8.5s-10.599 6.375-10.599 8.5 2.12 2.125 2.12 2.125h16.958Zm-16.911-2.124H31.52a.573.573 0 0 0 .03-.005l.016-.004c-.004-.56-.354-2.189-1.61-3.655-1.17-1.375-3.227-2.711-6.869-2.711-3.64 0-5.696 1.338-6.868 2.711-1.257 1.466-1.609 3.096-1.611 3.655l.047.009Zm8.432-12.75a4.235 4.235 0 0 0 2.998-1.245 4.256 4.256 0 0 0 0-6.01 4.235 4.235 0 0 0-5.996 0 4.255 4.255 0 0 0 0 6.01 4.234 4.234 0 0 0 2.998 1.245Zm6.36-4.25a6.389 6.389 0 0 1-1.863 4.508 6.36 6.36 0 0 1-4.497 1.867 6.345 6.345 0 0 1-4.497-1.867 6.376 6.376 0 0 1-1.862-4.508 6.38 6.38 0 0 1 1.863-4.508 6.351 6.351 0 0 1 8.993 0 6.383 6.383 0 0 1 1.863 4.508ZM14.473 16.88a12.44 12.44 0 0 0-2.607-.525 15.255 15.255 0 0 0-1.496-.07c-8.48 0-10.6 6.375-10.6 8.5 0 1.417.706 2.125 2.12 2.125h8.937a4.766 4.766 0 0 1-.457-2.125c0-2.146.799-4.34 2.31-6.171a11.23 11.23 0 0 1 1.793-1.734ZM10.2 18.41c-3.536.042-5.543 1.36-6.699 2.711-1.265 1.475-1.61 3.11-1.61 3.664H8.25c0-2.22.684-4.433 1.95-6.375ZM2.95 8.848c0-1.69.67-3.312 1.863-4.508a6.351 6.351 0 0 1 8.993 0 6.383 6.383 0 0 1 0 9.016 6.351 6.351 0 0 1-8.993 0A6.383 6.383 0 0 1 2.95 8.848Zm6.36-4.25a4.234 4.234 0 0 0-2.998 1.245 4.255 4.255 0 0 0 0 6.01 4.234 4.234 0 0 0 5.995 0 4.255 4.255 0 0 0 0-6.01A4.234 4.234 0 0 0 9.31 4.598Z" fill="#fff"/></g><defs><clipPath id="a"><path fill="#fff" transform="translate(0 .5)" d="M0 0h33v27H0z"/></clipPath></defs></svg>