<svg width="28" height="24" fill="none" xmlns="http://www.w3.org/2000/svg"><path fill-rule="evenodd" clip-rule="evenodd" d="M6.476 14.108a.978.978 0 0 0 .17.041 471.836 471.836 0 0 1 1.091 2.587c.65 1.552 1.304 3.152 1.448 3.61.179.566.368.95.575 1.214.106.136.23.254.374.344a1.138 1.138 0 0 0 .24.114c.414.156.79.09 1.027.011a1.684 1.684 0 0 0 .393-.193l.006-.004 3.65-2.277 4.218 3.233c.062.048.13.088.201.12.507.22.998.297 1.46.234a2.23 2.23 0 0 0 1.098-.474 2.574 2.574 0 0 0 .728-.94l.012-.029.005-.01.002-.006v-.002l.001-.002a.965.965 0 0 0 .051-.171L27.076 2.1a.97.97 0 0 0 .018-.188c0-.569-.214-1.11-.718-1.437-.43-.28-.91-.293-1.213-.27a3.737 3.737 0 0 0-.83.17 4.5 4.5 0 0 0-.336.122l-.015.006-21.588 8.47H2.39a2.555 2.555 0 0 0-.216.089 3.257 3.257 0 0 0-.49.274c-.294.2-.968.751-.855 1.66.09.724.587 1.17.89 1.384a2.994 2.994 0 0 0 .65.346l.013.005 4.093 1.377Zm18.262-11.82h-.003a.92.92 0 0 1-.033.014l-21.615 8.48a1.015 1.015 0 0 1-.034.012l-.012.005a1.317 1.317 0 0 0-.118.052 1.148 1.148 0 0 0 .112.055l4.059 1.366a.968.968 0 0 1 .207.098l13.403-7.846.013-.007a2.856 2.856 0 0 1 .57-.257c.116-.036.46-.138.833-.019a1.103 1.103 0 0 1 .76.89c.052.194.044.384.002.549-.088.354-.338.631-.564.843-.194.181-2.707 2.604-5.186 4.996l-3.374 3.256-.601.58 7.584 5.815a.68.68 0 0 0 .325.053.296.296 0 0 0 .15-.068.64.64 0 0 0 .134-.154l.002-.002 3.733-18.824a2.384 2.384 0 0 0-.345.112h-.002Zm-10.93 16.008-1.513-1.16-.366 2.333 1.88-1.173Zm-2.9-3.462 1.504-1.452 3.375-3.258 1.256-1.211-8.422 4.93.045.106a300.743 300.743 0 0 1 1.576 3.772l.366-2.326a.965.965 0 0 1 .3-.56Z" fill="#5A5A5A"/></svg>