<svg width="32" height="32" fill="none" xmlns="http://www.w3.org/2000/svg"><path d="M8.707 4.626a1 1 0 0 1 0 1.414L5.374 9.374a1 1 0 1 1-1.415-1.415l3.334-3.333a1 1 0 0 1 1.414 0Z" fill="#B1BEDA"/><path fill-rule="evenodd" clip-rule="evenodd" d="M16 6C9.74 6 4.666 11.074 4.666 17.333c0 6.26 5.075 11.334 11.334 11.334 6.26 0 11.333-5.075 11.333-11.334C27.333 11.074 22.26 6 16 6Zm1 4.667a1 1 0 1 0-2 0v6.666a1 1 0 0 0 .47.848l4 2.5a1 1 0 1 0 1.06-1.696L17 16.78v-6.112Z" fill="#B1BEDA"/><path d="M23.293 6.04a1 1 0 0 1 1.414-1.414L28.04 7.96a1 1 0 0 1-1.414 1.415L23.293 6.04Z" fill="#B1BEDA"/></svg>