<svg width="27" height="27" fill="none" xmlns="http://www.w3.org/2000/svg"><path d="M9.394 7.261c.236.007.498.02.748.573.165.368.444 1.046.67 1.599.177.43.322.783.358.856.084.165.135.356.026.578l-.037.076c-.087.18-.149.31-.295.478-.06.069-.123.145-.186.22-.11.133-.219.265-.313.358-.166.165-.338.344-.147.674.192.331.863 1.419 1.853 2.296a8.57 8.57 0 0 0 2.459 1.55c.09.039.165.07.219.097.332.166.53.14.722-.082.191-.223.83-.967 1.054-1.298.217-.33.44-.28.748-.165.306.114 1.942.916 2.274 1.081l.184.09c.231.11.388.186.455.298.083.14.083.801-.192 1.577-.28.776-1.635 1.52-2.249 1.578a6.717 6.717 0 0 0-.175.02c-.562.067-1.276.154-3.818-.847-3.133-1.232-5.201-4.289-5.62-4.907a2.09 2.09 0 0 0-.067-.098l-.007-.01c-.19-.254-1.354-1.812-1.354-3.418 0-1.537.757-2.338 1.103-2.703l.06-.064c.307-.33.665-.413.888-.413.224 0 .447 0 .64.006Z" fill="#5A5A5A"/><path fill-rule="evenodd" clip-rule="evenodd" d="M.738 25.553a.517.517 0 0 0 .628.637l5.951-1.554a12.917 12.917 0 0 0 6.147 1.558h.007c7.086 0 12.862-5.743 12.862-12.802a12.69 12.69 0 0 0-3.763-9.056 12.809 12.809 0 0 0-9.1-3.753C6.386.583.609 6.326.609 13.386c0 2.245.592 4.452 1.72 6.398l-1.59 5.77Zm3.457-5.255c.138-.5.07-1.036-.191-1.486a10.82 10.82 0 0 1-1.458-5.426c0-5.98 4.9-10.865 10.925-10.865 2.932 0 5.667 1.133 7.732 3.188a10.756 10.756 0 0 1 3.193 7.683c0 5.98-4.9 10.865-10.925 10.865h-.007c-1.83 0-3.627-.46-5.224-1.325a1.938 1.938 0 0 0-1.412-.17l-3.568.931.935-3.395Z" fill="#5A5A5A"/></svg>