<svg width="84" height="18" fill="none" xmlns="http://www.w3.org/2000/svg"><path d="M3 16.671 8.967 4.738c.77-1.54 2.967-1.54 3.737 0l4.098 8.195c.77 1.54 2.968 1.54 3.738 0l4.098-8.195c.77-1.54 2.968-1.54 3.738 0l4.097 8.195c.77 1.54 2.968 1.54 3.738 0l4.098-8.195c.77-1.54 2.968-1.54 3.738 0l4.098 8.195c.77 1.54 2.967 1.54 3.737 0l4.098-8.195c.77-1.54 2.968-1.54 3.738 0l4.098 8.195c.77 1.54 2.967 1.54 3.737 0l4.098-8.195c.77-1.54 2.968-1.54 3.738 0l5.967 11.933" stroke="#014DF5" stroke-width="5.224"/></svg>