<svg width="22" height="16" fill="none" xmlns="http://www.w3.org/2000/svg"><path fill-rule="evenodd" clip-rule="evenodd" d="M9.386 4.357A.75.75 0 0 0 8.25 5v6a.75.75 0 0 0 1.136.643l5-3a.75.75 0 0 0 0-1.286l-5-3ZM12.542 8 9.75 9.675v-3.35L12.542 8Z" fill="#5A5A5A"/><path fill-rule="evenodd" clip-rule="evenodd" d="M16.03.641a64.498 64.498 0 0 0-10.06 0L3.729.817a2.975 2.975 0 0 0-2.703 2.475 28.565 28.565 0 0 0 0 9.416 2.975 2.975 0 0 0 2.703 2.475l2.24.176c3.35.262 6.713.262 10.062 0l2.24-.176a2.975 2.975 0 0 0 2.703-2.475c.52-3.117.52-6.299 0-9.416A2.975 2.975 0 0 0 18.271.817L16.032.64ZM6.087 2.137a62.998 62.998 0 0 1 9.828 0l2.24.175c.676.053 1.229.56 1.34 1.228a27.066 27.066 0 0 1 0 8.92 1.475 1.475 0 0 1-1.34 1.228l-2.24.175a62.98 62.98 0 0 1-9.828 0l-2.24-.175a1.475 1.475 0 0 1-1.34-1.228 27.065 27.065 0 0 1 0-8.92 1.475 1.475 0 0 1 1.34-1.228l2.24-.175Z" fill="#5A5A5A"/></svg>